0
SECTION
2
HEADER
9
$INSUNITS
70
4
9
$ACADVER
1
AC1014
9
$HANDSEED
5
FFFF
0
ENDSEC
0
SECTION
2
TABLES
0
TABLE
2
VPORT
5
8
100
AcDbSymbolTable
0
ENDTAB
0
TABLE
2
LTYPE
5
5
100
AcDbSymbolTable
0
LTYPE
5
14
100
AcDbSymbolTableRecord
100
AcDbLinetypeTableRecord
2
BYBLOCK
70
0
0
LTYPE
5
15
100
AcDbSymbolTableRecord
100
AcDbLinetypeTableRecord
2
BYLAYER
70
0
0
ENDTAB
0
TABLE
2
LAYER
5
2
100
AcDbSymbolTable
70
2
0
LAYER
5
50
100
AcDbSymbolTableRecord
100
AcDbLayerTableRecord
2
0
70
0
6
CONTINUOUS
0
ENDTAB
0
TABLE
2
STYLE
5
3
100
AcDbSymbolTable
70
1
0
STYLE
5
11
100
AcDbSymbolTableRecord
100
AcDbTextStyleTableRecord
2
STANDARD
70
0
0
ENDTAB
0
TABLE
2
VIEW
5
6
100
AcDbSymbolTable
70
0
0
ENDTAB
0
TABLE
2
UCS
5
7
100
AcDbSymbolTable
70
0
0
ENDTAB
0
TABLE
2
APPID
5
9
100
AcDbSymbolTable
70
2
0
APPID
5
12
100
AcDbSymbolTableRecord
100
AcDbRegAppTableRecord
2
ACAD
70
0
0
ENDTAB
0
TABLE
2
DIMSTYLE
5
A
100
AcDbSymbolTable
70
1
0
ENDTAB
0
TABLE
2
BLOCK_RECORD
5
1
100
AcDbSymbolTable
70
1
0
BLOCK_RECORD
5
1F
100
AcDbSymbolTableRecord
100
AcDbBlockTableRecord
2
*MODEL_SPACE
0
BLOCK_RECORD
5
1B
100
AcDbSymbolTableRecord
100
AcDbBlockTableRecord
2
*PAPER_SPACE
0
ENDTAB
0
ENDSEC
0
SECTION
2
BLOCKS
0
BLOCK
5
20
100
AcDbEntity
100
AcDbBlockBegin
2
*MODEL_SPACE
0
ENDBLK
5
21
100
AcDbEntity
100
AcDbBlockEnd
0
BLOCK
5
1C
100
AcDbEntity
100
AcDbBlockBegin
2
*PAPER_SPACE
0
ENDBLK
5
1D
100
AcDbEntity
100
AcDbBlockEnd
0
ENDSEC
0
SECTION
2
ENTITIES
0
CIRCLE
5
100
100
AcDbEntity
8
0
100
AcDbCircle
10
122.72660000000002
20
157.60000000000005
30
0
40
3.349999999999993
210
0
220
0
230
1
0
CIRCLE
5
101
100
AcDbEntity
8
0
100
AcDbCircle
10
122.72660000000002
20
7.4999999999999964
30
0
40
3.3500000000000036
210
0
220
0
230
1
0
CIRCLE
5
102
100
AcDbEntity
8
0
100
AcDbCircle
10
237.95339999999999
20
157.59999999999997
30
0
40
3.350000000000009
210
0
220
0
230
1
0
CIRCLE
5
103
100
AcDbEntity
8
0
100
AcDbCircle
10
353.17999999999984
20
7.5000000000001199
30
0
40
3.350000000000005
210
0
220
0
230
1
0
CIRCLE
5
104
100
AcDbEntity
8
0
100
AcDbCircle
10
7.4999999999999689
20
157.60000000000014
30
0
40
3.3500000000000036
210
0
220
0
230
1
0
CIRCLE
5
105
100
AcDbEntity
8
0
100
AcDbCircle
10
353.17999999999995
20
82.549999999999983
30
0
40
3.3500000000000063
210
0
220
0
230
1
0
CIRCLE
5
106
100
AcDbEntity
8
0
100
AcDbCircle
10
7.4999999999999911
20
7.4999999999999947
30
0
40
3.3500000000000005
210
0
220
0
230
1
0
CIRCLE
5
107
100
AcDbEntity
8
0
100
AcDbCircle
10
7.4999999999999867
20
82.549999999999983
30
0
40
3.3500000000000023
210
0
220
0
230
1
0
CIRCLE
5
108
100
AcDbEntity
8
0
100
AcDbCircle
10
237.95339999999999
20
7.5000000000000462
30
0
40
3.3500000000000019
210
0
220
0
230
1
0
CIRCLE
5
109
100
AcDbEntity
8
0
100
AcDbCircle
10
353.17999999999984
20
157.59999999999997
30
0
40
3.3499999999999766
210
0
220
0
230
1
0
LINE
5
110
100
AcDbEntity
8
0
100
AcDbLine
10
286.24948358770189
20
153.28977366906017
30
0
11
286.25148358770207
21
153.28377366906011
31
0
0
LINE
5
111
100
AcDbEntity
8
0
100
AcDbLine
10
286.2604835877018
20
153.26077366906014
30
0
11
286.26648358770188
21
153.24177366906011
31
0
0
LINE
5
112
100
AcDbEntity
8
0
100
AcDbLine
10
315.70148358770206
20
150.33977366906018
30
0
11
315.70548358770196
21
150.33977366906018
31
0
0
LINE
5
113
100
AcDbEntity
8
0
100
AcDbLine
10
315.73248358770218
20
150.32377366905996
30
0
11
315.74948358770206
21
150.31377366905991
31
0
0
LINE
5
114
100
AcDbEntity
8
0
100
AcDbLine
10
286.20748358770197
20
153.31377366906011
30
0
11
286.21748358770196
21
153.31277366906016
31
0
0
LINE
5
115
100
AcDbEntity
8
0
100
AcDbLine
10
244.12048358770193
20
140.84477366906015
30
0
11
244.12148358770196
21
140.85377366906005
31
0
0
LINE
5
116
100
AcDbEntity
8
0
100
AcDbLine
10
315.74948358770206
20
150.31377366905991
30
0
11
315.75148358770207
21
150.30777366905988
31
0
0
LINE
5
117
100
AcDbEntity
8
0
100
AcDbLine
10
286.25648358770201
20
153.27977366906021
30
0
11
286.2604835877018
21
153.26077366906014
31
0
0
LINE
5
118
100
AcDbEntity
8
0
100
AcDbLine
10
315.69248358770204
20
150.34077366906016
30
0
11
315.70148358770206
21
150.33977366906018
31
0
0
LINE
5
119
100
AcDbEntity
8
0
100
AcDbLine
10
315.75148358770207
20
150.30777366905988
30
0
11
315.75748358770193
21
150.30377366906009
31
0
0
LINE
5
120
100
AcDbEntity
8
0
100
AcDbLine
10
244.15048358770184
20
140.88877366906013
30
0
11
244.15448358770198
21
140.89377366906012
31
0
0
LINE
5
121
100
AcDbEntity
8
0
100
AcDbLine
10
315.70848358770201
20
150.33777366906011
30
0
11
315.71748358770219
21
150.33677366905991
31
0
0
LINE
5
122
100
AcDbEntity
8
0
100
AcDbLine
10
244.11748358770188
20
140.82877366906013
30
0
11
244.11948358770186
21
140.83777366906014
31
0
0
LINE
5
123
100
AcDbEntity
8
0
100
AcDbLine
10
244.13448358770205
20
140.86877366906015
30
0
11
244.14448358770201
21
140.88577366906011
31
0
0
LINE
5
124
100
AcDbEntity
8
0
100
AcDbLine
10
244.11848358770192
20
140.84177366906016
30
0
11
244.12048358770193
21
140.84477366906015
31
0
0
LINE
5
125
100
AcDbEntity
8
0
100
AcDbLine
10
286.21748358770196
20
153.31277366906016
30
0
11
286.23248358770189
21
153.2997736690601
31
0
0
LINE
5
126
100
AcDbEntity
8
0
100
AcDbLine
10
286.25148358770207
20
153.28377366906011
30
0
11
286.25648358770201
21
153.27977366906021
31
0
0
LINE
5
127
100
AcDbEntity
8
0
100
AcDbLine
10
286.19148358770195
20
153.31677366906013
30
0
11
286.20148358770189
21
153.31577366906015
31
0
0
LINE
5
128
100
AcDbEntity
8
0
100
AcDbLine
10
286.23248358770189
20
153.2997736690601
30
0
11
286.24948358770189
21
153.28977366906017
31
0
0
LINE
5
129
100
AcDbEntity
8
0
100
AcDbLine
10
315.75748358770193
20
150.30377366906009
30
0
11
315.7604835877018
21
150.28477366906003
31
0
0
LINE
5
130
100
AcDbEntity
8
0
100
AcDbLine
10
315.70548358770196
20
150.33977366906018
30
0
11
315.70848358770201
21
150.33777366906011
31
0
0
LINE
5
131
100
AcDbEntity
8
0
100
AcDbLine
10
244.12148358770196
20
140.85377366906005
30
0
11
244.13448358770205
21
140.86877366906015
31
0
0
LINE
5
132
100
AcDbEntity
8
0
100
AcDbLine
10
244.17448358770201
20
140.89677366906017
30
0
11
244.19248358770201
21
140.90377366906012
31
0
0
LINE
5
133
100
AcDbEntity
8
0
100
AcDbLine
10
315.71748358770219
20
150.33677366905991
30
0
11
315.73248358770218
21
150.32377366905996
31
0
0
LWPOLYLINE
5
134
100
AcDbEntity
8
0
100
AcDbPolyline
90
8
70
1
43
0.0
10
7.5
20
165.10000000000005
42
0.41421356237309781
10
0
20
157.60000000000005
10
3.3306690738754696e-15
20
7.5000000000000355
42
0.41421356237309687
10
7.4999999999999964
20
2.2204460492503127e-15
10
353.18000000000006
20
1.1102230246251565e-15
42
0.41421356237308476
10
360.68000000000006
20
7.4999999999999991
10
360.68000000000006
20
157.59999999999997
42
0.4142135623730902
10
353.18000000000006
20
165.10000000000014
0
LINE
5
135
100
AcDbEntity
8
0
100
AcDbLine
10
244.15448358770198
20
140.89377366906012
30
0
11
244.17448358770201
21
140.89677366906017
31
0
0
LINE
5
136
100
AcDbEntity
8
0
100
AcDbLine
10
244.14448358770201
20
140.88577366906011
30
0
11
244.15048358770184
21
140.88877366906013
31
0
0
LINE
5
137
100
AcDbEntity
8
0
100
AcDbLine
10
286.20448358770199
20
153.31577366906015
30
0
11
286.20748358770197
21
153.31377366906011
31
0
0
LINE
5
138
100
AcDbEntity
8
0
100
AcDbLine
10
286.20148358770189
20
153.31577366906015
30
0
11
286.20448358770199
21
153.31577366906015
31
0
0
LINE
5
139
100
AcDbEntity
8
0
100
AcDbLine
10
315.7604835877018
20
150.28477366906003
30
0
11
315.76748358770197
21
150.2657736690602
31
0
0
LINE
5
140
100
AcDbEntity
8
0
100
AcDbLine
10
244.11948358770186
20
140.83777366906014
30
0
11
244.11848358770192
21
140.84177366906016
31
0
0
ENDSEC
0
SECTION
2
OBJECTS
0
DICTIONARY
5
C
100
AcDbDictionary
3
ACAD_GROUP
350
D
3
ACAD_MLINESTYLE
350
17
0
DICTIONARY
5
D
100
AcDbDictionary
0
DICTIONARY
5
1A
330
C
100
AcDbDictionary
0
DICTIONARY
5
17
100
AcDbDictionary
0
ENDSEC
0
EOF
