0
SECTION
2
HEADER
9
$INSUNITS
70
4
9
$ACADVER
1
AC1014
9
$HANDSEED
5
FFFF
0
ENDSEC
0
SECTION
2
TABLES
0
TABLE
2
VPORT
5
8
100
AcDbSymbolTable
0
ENDTAB
0
TABLE
2
LTYPE
5
5
100
AcDbSymbolTable
0
LTYPE
5
14
100
AcDbSymbolTableRecord
100
AcDbLinetypeTableRecord
2
BYBLOCK
70
0
0
LTYPE
5
15
100
AcDbSymbolTableRecord
100
AcDbLinetypeTableRecord
2
BYLAYER
70
0
0
ENDTAB
0
TABLE
2
LAYER
5
2
100
AcDbSymbolTable
70
2
0
LAYER
5
50
100
AcDbSymbolTableRecord
100
AcDbLayerTableRecord
2
0
70
0
6
CONTINUOUS
0
ENDTAB
0
TABLE
2
STYLE
5
3
100
AcDbSymbolTable
70
1
0
STYLE
5
11
100
AcDbSymbolTableRecord
100
AcDbTextStyleTableRecord
2
STANDARD
70
0
0
ENDTAB
0
TABLE
2
VIEW
5
6
100
AcDbSymbolTable
70
0
0
ENDTAB
0
TABLE
2
UCS
5
7
100
AcDbSymbolTable
70
0
0
ENDTAB
0
TABLE
2
APPID
5
9
100
AcDbSymbolTable
70
2
0
APPID
5
12
100
AcDbSymbolTableRecord
100
AcDbRegAppTableRecord
2
ACAD
70
0
0
ENDTAB
0
TABLE
2
DIMSTYLE
5
A
100
AcDbSymbolTable
70
1
0
ENDTAB
0
TABLE
2
BLOCK_RECORD
5
1
100
AcDbSymbolTable
70
1
0
BLOCK_RECORD
5
1F
100
AcDbSymbolTableRecord
100
AcDbBlockTableRecord
2
*MODEL_SPACE
0
BLOCK_RECORD
5
1B
100
AcDbSymbolTableRecord
100
AcDbBlockTableRecord
2
*PAPER_SPACE
0
ENDTAB
0
ENDSEC
0
SECTION
2
BLOCKS
0
BLOCK
5
20
100
AcDbEntity
100
AcDbBlockBegin
2
*MODEL_SPACE
0
ENDBLK
5
21
100
AcDbEntity
100
AcDbBlockEnd
0
BLOCK
5
1C
100
AcDbEntity
100
AcDbBlockBegin
2
*PAPER_SPACE
0
ENDBLK
5
1D
100
AcDbEntity
100
AcDbBlockEnd
0
ENDSEC
0
SECTION
2
ENTITIES
0
LWPOLYLINE
5
100
100
AcDbEntity
8
0
100
AcDbPolyline
90
8
70
1
43
0.0
10
353.18000000000006
20
165.10000000000016
10
7.5
20
165.10000000000005
42
0.41421356237309759
10
-1.7763568394002498e-14
20
157.60000000000005
10
2.2204460492503131e-15
20
7.5000000000000355
42
0.41421356237309698
10
7.4999999999999964
20
1.1102230246251563e-15
10
353.18000000000006
20
1.1102230246251565e-15
42
0.41421356237308476
10
360.68000000000006
20
7.4999999999999991
10
360.68000000000006
20
157.59999999999997
42
0.4142135623730902
0
LWPOLYLINE
5
101
100
AcDbEntity
8
0
100
AcDbPolyline
90
6
70
1
43
0.0
10
3.3999999999999297
20
155.23286389632267
10
7.4999999999999449
20
152.8657277926452
10
11.599999999999902
20
155.23286389632261
10
11.599999999999902
20
159.9671361036776
10
7.5
20
162.33427220735501
10
3.3999999999999275
20
159.96713610367755
0
LWPOLYLINE
5
102
100
AcDbEntity
8
0
100
AcDbPolyline
90
6
70
1
43
0.0
10
122.72660000000005
20
162.33427220735496
10
118.62659999999998
20
159.96713610367752
10
118.62659999999998
20
155.23286389632264
10
122.7266
20
152.86572779264517
10
126.82659999999996
20
155.23286389632258
10
126.82659999999996
20
159.96713610367755
0
LWPOLYLINE
5
103
100
AcDbEntity
8
0
100
AcDbPolyline
90
6
70
1
43
0.0
10
237.95340000000004
20
162.33427220735484
10
233.85339999999997
20
159.96713610367743
10
233.85339999999997
20
155.23286389632258
10
237.95339999999996
20
152.86572779264509
10
242.0533999999999
20
155.2328638963225
10
242.0533999999999
20
159.96713610367746
0
LWPOLYLINE
5
104
100
AcDbEntity
8
0
100
AcDbPolyline
90
6
70
1
43
0.0
10
353.17999999999989
20
162.33427220735493
10
349.07999999999987
20
159.96713610367746
10
349.07999999999987
20
155.23286389632264
10
353.17999999999989
20
152.86572779264515
10
357.2799999999998
20
155.23286389632256
10
357.2799999999998
20
159.96713610367752
0
LWPOLYLINE
5
105
100
AcDbEntity
8
0
100
AcDbPolyline
90
6
70
1
43
0.0
10
7.5000000000000178
20
87.284272207354903
10
3.3999999999999497
20
84.917136103677464
10
3.3999999999999497
20
80.182863896322587
10
7.49999999999996
20
77.815727792645106
10
11.599999999999914
20
80.182863896322516
10
11.599999999999914
20
84.917136103677507
0
LWPOLYLINE
5
106
100
AcDbEntity
8
0
100
AcDbPolyline
90
6
70
1
43
0.0
10
353.17999999999995
20
87.284272207354903
10
349.07999999999993
20
84.917136103677464
10
349.07999999999993
20
80.18286389632263
10
353.17999999999995
20
77.815727792645148
10
357.27999999999997
20
80.182863896322544
10
357.27999999999997
20
84.917136103677507
0
LWPOLYLINE
5
107
100
AcDbEntity
8
0
100
AcDbPolyline
90
6
70
1
43
0.0
10
353.17999999999989
20
12.234272207355033
10
349.07999999999987
20
9.8671361036775949
10
349.07999999999987
20
5.1328638963227169
10
353.17999999999984
20
2.7657277926452428
10
357.2799999999998
20
5.1328638963226458
10
357.2799999999998
20
9.8671361036776304
0
LWPOLYLINE
5
108
100
AcDbEntity
8
0
100
AcDbPolyline
90
6
70
1
43
0.0
10
7.5000000000000222
20
12.234272207354868
10
3.3999999999999586
20
9.8671361036774297
10
3.3999999999999608
20
5.1328638963225881
10
7.4999999999999645
20
2.765727792645114
10
11.599999999999913
20
5.132863896322517
10
11.599999999999913
20
9.8671361036774652
0
LWPOLYLINE
5
109
100
AcDbEntity
8
0
100
AcDbPolyline
90
6
70
1
43
0.0
10
122.72660000000003
20
12.234272207354874
10
118.62659999999998
20
9.867136103677435
10
118.62659999999998
20
5.1328638963225925
10
122.72659999999999
20
2.7657277926451185
10
126.82659999999993
20
5.1328638963225215
10
126.82659999999993
20
9.8671361036774705
0
LWPOLYLINE
5
110
100
AcDbEntity
8
0
100
AcDbPolyline
90
6
70
1
43
0.0
10
237.95340000000004
20
12.234272207354957
10
233.85339999999997
20
9.8671361036775185
10
233.85339999999997
20
5.1328638963226414
10
237.95339999999996
20
2.7657277926451673
10
242.05339999999993
20
5.1328638963225703
10
242.05339999999993
20
9.867136103677554
0
ENDSEC
0
SECTION
2
OBJECTS
0
DICTIONARY
5
C
100
AcDbDictionary
3
ACAD_GROUP
350
D
3
ACAD_MLINESTYLE
350
17
0
DICTIONARY
5
D
100
AcDbDictionary
0
DICTIONARY
5
1A
330
C
100
AcDbDictionary
0
DICTIONARY
5
17
100
AcDbDictionary
0
ENDSEC
0
EOF
