0
SECTION
2
HEADER
9
$INSUNITS
70
4
9
$ACADVER
1
AC1014
9
$HANDSEED
5
FFFF
0
ENDSEC
0
SECTION
2
TABLES
0
TABLE
2
VPORT
5
8
100
AcDbSymbolTable
0
ENDTAB
0
TABLE
2
LTYPE
5
5
100
AcDbSymbolTable
0
LTYPE
5
14
100
AcDbSymbolTableRecord
100
AcDbLinetypeTableRecord
2
BYBLOCK
70
0
0
LTYPE
5
15
100
AcDbSymbolTableRecord
100
AcDbLinetypeTableRecord
2
BYLAYER
70
0
0
ENDTAB
0
TABLE
2
LAYER
5
2
100
AcDbSymbolTable
70
2
0
LAYER
5
50
100
AcDbSymbolTableRecord
100
AcDbLayerTableRecord
2
0
70
0
6
CONTINUOUS
0
ENDTAB
0
TABLE
2
STYLE
5
3
100
AcDbSymbolTable
70
1
0
STYLE
5
11
100
AcDbSymbolTableRecord
100
AcDbTextStyleTableRecord
2
STANDARD
70
0
0
ENDTAB
0
TABLE
2
VIEW
5
6
100
AcDbSymbolTable
70
0
0
ENDTAB
0
TABLE
2
UCS
5
7
100
AcDbSymbolTable
70
0
0
ENDTAB
0
TABLE
2
APPID
5
9
100
AcDbSymbolTable
70
2
0
APPID
5
12
100
AcDbSymbolTableRecord
100
AcDbRegAppTableRecord
2
ACAD
70
0
0
ENDTAB
0
TABLE
2
DIMSTYLE
5
A
100
AcDbSymbolTable
70
1
0
ENDTAB
0
TABLE
2
BLOCK_RECORD
5
1
100
AcDbSymbolTable
70
1
0
BLOCK_RECORD
5
1F
100
AcDbSymbolTableRecord
100
AcDbBlockTableRecord
2
*MODEL_SPACE
0
BLOCK_RECORD
5
1B
100
AcDbSymbolTableRecord
100
AcDbBlockTableRecord
2
*PAPER_SPACE
0
ENDTAB
0
ENDSEC
0
SECTION
2
BLOCKS
0
BLOCK
5
20
100
AcDbEntity
100
AcDbBlockBegin
2
*MODEL_SPACE
0
ENDBLK
5
21
100
AcDbEntity
100
AcDbBlockEnd
0
BLOCK
5
1C
100
AcDbEntity
100
AcDbBlockBegin
2
*PAPER_SPACE
0
ENDBLK
5
1D
100
AcDbEntity
100
AcDbBlockEnd
0
ENDSEC
0
SECTION
2
ENTITIES
0
LINE
5
100
100
AcDbEntity
8
0
100
AcDbLine
10
244.12048358770193
20
140.84477366906015
30
0
11
244.12148358770196
21
140.85377366906005
31
0
0
LINE
5
101
100
AcDbEntity
8
0
100
AcDbLine
10
244.14448358770201
20
140.88577366906011
30
0
11
244.15048358770184
21
140.88877366906013
31
0
0
LINE
5
102
100
AcDbEntity
8
0
100
AcDbLine
10
315.69248358770204
20
150.34077366906016
30
0
11
315.70148358770206
21
150.33977366906018
31
0
0
LINE
5
103
100
AcDbEntity
8
0
100
AcDbLine
10
244.17448358770201
20
140.89677366906017
30
0
11
244.19248358770201
21
140.90377366906012
31
0
0
LINE
5
104
100
AcDbEntity
8
0
100
AcDbLine
10
315.73248358770218
20
150.32377366905996
30
0
11
315.74948358770206
21
150.31377366905991
31
0
0
LINE
5
105
100
AcDbEntity
8
0
100
AcDbLine
10
244.15448358770198
20
140.89377366906012
30
0
11
244.17448358770201
21
140.89677366906017
31
0
0
LINE
5
106
100
AcDbEntity
8
0
100
AcDbLine
10
244.15048358770184
20
140.88877366906013
30
0
11
244.15448358770198
21
140.89377366906012
31
0
0
LINE
5
107
100
AcDbEntity
8
0
100
AcDbLine
10
286.20148358770189
20
153.31577366906015
30
0
11
286.20448358770199
21
153.31577366906015
31
0
0
LINE
5
108
100
AcDbEntity
8
0
100
AcDbLine
10
244.11948358770186
20
140.83777366906014
30
0
11
244.11848358770192
21
140.84177366906016
31
0
0
LINE
5
109
100
AcDbEntity
8
0
100
AcDbLine
10
286.20748358770197
20
153.31377366906011
30
0
11
286.21748358770196
21
153.31277366906016
31
0
0
LINE
5
110
100
AcDbEntity
8
0
100
AcDbLine
10
286.25148358770207
20
153.28377366906011
30
0
11
286.25648358770201
21
153.27977366906021
31
0
0
LINE
5
111
100
AcDbEntity
8
0
100
AcDbLine
10
315.75148358770207
20
150.30777366905988
30
0
11
315.75748358770193
21
150.30377366906009
31
0
0
LINE
5
112
100
AcDbEntity
8
0
100
AcDbLine
10
286.23248358770189
20
153.2997736690601
30
0
11
286.24948358770189
21
153.28977366906017
31
0
0
LINE
5
113
100
AcDbEntity
8
0
100
AcDbLine
10
244.11848358770192
20
140.84177366906016
30
0
11
244.12048358770193
21
140.84477366906015
31
0
0
LINE
5
114
100
AcDbEntity
8
0
100
AcDbLine
10
315.70848358770201
20
150.33777366906011
30
0
11
315.71748358770219
21
150.33677366905991
31
0
0
LINE
5
115
100
AcDbEntity
8
0
100
AcDbLine
10
315.70548358770196
20
150.33977366906018
30
0
11
315.70848358770201
21
150.33777366906011
31
0
0
LINE
5
116
100
AcDbEntity
8
0
100
AcDbLine
10
286.25648358770201
20
153.27977366906021
30
0
11
286.2604835877018
21
153.26077366906014
31
0
0
LINE
5
117
100
AcDbEntity
8
0
100
AcDbLine
10
286.21748358770196
20
153.31277366906016
30
0
11
286.23248358770189
21
153.2997736690601
31
0
0
LINE
5
118
100
AcDbEntity
8
0
100
AcDbLine
10
286.2604835877018
20
153.26077366906014
30
0
11
286.26648358770188
21
153.24177366906011
31
0
0
LINE
5
119
100
AcDbEntity
8
0
100
AcDbLine
10
315.74948358770206
20
150.31377366905991
30
0
11
315.75148358770207
21
150.30777366905988
31
0
0
LINE
5
120
100
AcDbEntity
8
0
100
AcDbLine
10
315.70148358770206
20
150.33977366906018
30
0
11
315.70548358770196
21
150.33977366906018
31
0
0
LINE
5
121
100
AcDbEntity
8
0
100
AcDbLine
10
19.94148358770186
20
12.442773669060117
30
0
11
19.426483587701885
21
12.459773669060116
31
0
0
LINE
5
122
100
AcDbEntity
8
0
100
AcDbLine
10
12.671483587701893
20
17.955773669060093
30
0
11
12.549483587701857
21
18.456773669060095
31
0
0
LINE
5
123
100
AcDbEntity
8
0
100
AcDbLine
10
343.41048358770189
20
12.878773669060164
30
0
11
342.91848358770187
21
12.722773669060107
31
0
0
LINE
5
124
100
AcDbEntity
8
0
100
AcDbLine
10
18.91348358770195
20
152.95177366906015
30
0
11
19.426483587701927
21
153.00477366906017
31
0
0
LINE
5
125
100
AcDbEntity
8
0
100
AcDbLine
10
167.4064835877019
20
161.0177736690602
30
0
11
167.42448358770187
21
161.02577366906016
31
0
0
LWPOLYLINE
5
126
100
AcDbEntity
8
0
100
AcDbPolyline
90
8
70
1
43
0.0
10
-1.7763568394002498e-14
20
157.60000000000005
10
3.3306690738754696e-15
20
7.5000000000000355
42
0.41421356237309687
10
7.4999999999999982
20
3.3306690738754696e-15
10
353.18000000000006
20
1.1102230246251565e-15
42
0.41421356237308476
10
360.68000000000006
20
7.4999999999999991
10
360.68000000000006
20
157.59999999999997
42
0.4142135623730902
10
353.18000000000006
20
165.10000000000016
10
7.5
20
165.10000000000005
42
0.41421356237309781
0
LINE
5
127
100
AcDbEntity
8
0
100
AcDbLine
10
167.39148358770191
20
153.03277366906016
30
0
11
167.39148358770191
21
160.98277366906015
31
0
0
LINE
5
128
100
AcDbEntity
8
0
100
AcDbLine
10
342.91848358770187
20
12.722773669060107
30
0
11
342.41748358770189
21
12.600773669060175
31
0
0
LINE
5
129
100
AcDbEntity
8
0
100
AcDbLine
10
15.587483587701989
20
13.824773669060093
30
0
11
15.17748358770195
21
14.135773669060045
31
0
0
LINE
5
130
100
AcDbEntity
8
0
100
AcDbLine
10
171.34146025183429
20
163.10002285769912
30
0
11
173.34146025183429
21
163.10002285769912
31
0
0
LINE
5
131
100
AcDbEntity
8
0
100
AcDbLine
10
341.9094835877018
20
12.512773669060168
30
0
11
341.39748358770186
21
12.459773669060116
31
0
0
LINE
5
132
100
AcDbEntity
8
0
100
AcDbLine
10
167.42448358770187
20
161.02577366906016
30
0
11
167.44148358770192
21
161.03277366906016
31
0
0
LINE
5
133
100
AcDbEntity
8
0
100
AcDbLine
10
14.423483587701895
20
150.62577366906015
30
0
11
14.788483587701897
21
150.99077366906016
31
0
0
LINE
5
134
100
AcDbEntity
8
0
100
AcDbLine
10
315.75748358770193
20
150.30377366906009
30
0
11
315.7604835877018
21
150.28477366906003
31
0
0
LINE
5
135
100
AcDbEntity
8
0
100
AcDbLine
10
315.71748358770219
20
150.33677366905991
30
0
11
315.73248358770218
21
150.32377366905996
31
0
0
LINE
5
136
100
AcDbEntity
8
0
100
AcDbLine
10
16.018483587701873
20
151.92377366906015
30
0
11
16.46848358770189
21
152.17577366906025
31
0
0
LINE
5
137
100
AcDbEntity
8
0
100
AcDbLine
10
19.94148358770197
20
153.0227736690602
30
0
11
110.48848358770194
21
153.02877366906012
31
0
0
LINE
5
138
100
AcDbEntity
8
0
100
AcDbLine
10
286.19148358770195
20
153.31677366906013
30
0
11
286.20148358770189
21
153.31577366906015
31
0
0
LINE
5
139
100
AcDbEntity
8
0
100
AcDbLine
10
18.913483587701915
20
12.512773669060168
30
0
11
18.40548358770203
21
12.600773669060107
31
0
0
LINE
5
140
100
AcDbEntity
8
0
100
AcDbLine
10
13.238483587701886
20
148.94577366906015
30
0
11
13.490483587701902
21
149.39577366906011
31
0
0
LINE
5
141
100
AcDbEntity
8
0
100
AcDbLine
10
286.24948358770189
20
153.28977366906017
30
0
11
286.25148358770207
21
153.28377366906011
31
0
0
LINE
5
142
100
AcDbEntity
8
0
100
AcDbLine
10
16.933483587701875
20
152.3977736690602
30
0
11
17.41348358770189
21
152.58677366906011
31
0
0
LINE
5
143
100
AcDbEntity
8
0
100
AcDbLine
10
15.17748358770195
20
14.135773669060045
30
0
11
14.788483587701897
21
14.474773669060141
31
0
0
LINE
5
144
100
AcDbEntity
8
0
100
AcDbLine
10
189.34148895070717
20
163.09982721378145
30
0
11
187.34148895070717
21
163.09982721378145
31
0
0
LINE
5
145
100
AcDbEntity
8
0
100
AcDbLine
10
342.41748358770189
20
12.600773669060175
30
0
11
341.9094835877018
21
12.512773669060168
31
0
0
LINE
5
146
100
AcDbEntity
8
0
100
AcDbLine
10
12.671483587701893
20
147.50977366906017
30
0
11
12.82748358770192
21
148.00077366906015
31
0
0
LINE
5
147
100
AcDbEntity
8
0
100
AcDbLine
10
187.34148895070717
20
163.09982721378145
30
0
11
187.34148895070717
21
165.09999630972743
31
0
0
LINE
5
148
100
AcDbEntity
8
0
100
AcDbLine
10
15.177483587701914
20
151.32877366906015
30
0
11
15.58748358770192
21
151.64077366906025
31
0
0
LINE
5
149
100
AcDbEntity
8
0
100
AcDbLine
10
16.933483587701875
20
13.067773669060117
30
0
11
16.468483587701993
21
13.288773669060063
31
0
0
LINE
5
150
100
AcDbEntity
8
0
100
AcDbLine
10
244.13448358770205
20
140.86877366906015
30
0
11
244.14448358770201
21
140.88577366906011
31
0
0
LINE
5
151
100
AcDbEntity
8
0
100
AcDbLine
10
315.7604835877018
20
150.28477366906003
30
0
11
315.76748358770197
21
150.2657736690602
31
0
0
LINE
5
152
100
AcDbEntity
8
0
100
AcDbLine
10
15.58748358770192
20
151.64077366906025
30
0
11
16.018483587701873
21
151.92377366906015
31
0
0
LINE
5
153
100
AcDbEntity
8
0
100
AcDbLine
10
13.238483587701886
20
16.518773669060138
30
0
11
13.01648358770187
21
16.984773669060186
31
0
0
LINE
5
154
100
AcDbEntity
8
0
100
AcDbLine
10
244.12148358770196
20
140.85377366906005
30
0
11
244.13448358770205
21
140.86877366906015
31
0
0
LINE
5
155
100
AcDbEntity
8
0
100
AcDbLine
10
14.423483587701895
20
14.838773669060146
30
0
11
14.085483587701901
21
15.227773669060127
31
0
0
LINE
5
156
100
AcDbEntity
8
0
100
AcDbLine
10
343.88948358770187
20
13.067773669060117
30
0
11
343.41048358770189
21
12.878773669060164
31
0
0
LINE
5
157
100
AcDbEntity
8
0
100
AcDbLine
10
14.085483587701901
20
150.23677366906011
30
0
11
14.423483587701895
21
150.62577366906015
31
0
0
LINE
5
158
100
AcDbEntity
8
0
100
AcDbLine
10
18.40548358770203
20
12.600773669060107
30
0
11
17.904483587701989
21
12.722773669060032
31
0
0
LINE
5
159
100
AcDbEntity
8
0
100
AcDbLine
10
13.773483587701886
20
149.82677366906015
30
0
11
14.085483587701901
21
150.23677366906011
31
0
0
LINE
5
160
100
AcDbEntity
8
0
100
AcDbLine
10
193.36148358770203
20
161.04277366906015
30
0
11
193.37948358770183
21
161.03577366906021
31
0
0
LINE
5
161
100
AcDbEntity
8
0
100
AcDbLine
10
13.490483587701902
20
16.069773669060154
30
0
11
13.238483587701886
21
16.518773669060138
31
0
0
LINE
5
162
100
AcDbEntity
8
0
100
AcDbLine
10
13.490483587701902
20
149.39577366906011
30
0
11
13.773483587701886
21
149.82677366906015
31
0
0
LINE
5
163
100
AcDbEntity
8
0
100
AcDbLine
10
244.11748358770188
20
140.82877366906013
30
0
11
244.11948358770186
21
140.83777366906014
31
0
0
LINE
5
164
100
AcDbEntity
8
0
100
AcDbLine
10
193.37948358770183
20
161.03577366906021
30
0
11
193.39748358770183
21
161.02777366906022
31
0
0
LINE
5
165
100
AcDbEntity
8
0
100
AcDbLine
10
12.82748358770192
20
148.00077366906015
30
0
11
13.01648358770187
21
148.48077366906011
31
0
0
LINE
5
166
100
AcDbEntity
8
0
100
AcDbLine
10
17.41348358770189
20
152.58677366906011
30
0
11
17.904483587701886
21
152.74277366906011
31
0
0
LINE
5
167
100
AcDbEntity
8
0
100
AcDbLine
10
286.20448358770199
20
153.31577366906015
30
0
11
286.20748358770197
21
153.31377366906011
31
0
0
LINE
5
168
100
AcDbEntity
8
0
100
AcDbLine
10
340.88148358770189
20
12.442773669060117
30
0
11
19.94148358770186
21
12.442773669060117
31
0
0
LINE
5
169
100
AcDbEntity
8
0
100
AcDbLine
10
171.34146025183429
20
162.09971996626703
30
0
11
171.34146025183429
21
163.10002285769912
31
0
0
LINE
5
170
100
AcDbEntity
8
0
100
AcDbLine
10
110.48848358770194
20
153.02877366906012
30
0
11
167.39148358770191
21
153.03277366906016
31
0
0
LINE
5
171
100
AcDbEntity
8
0
100
AcDbLine
10
348.36148358770203
20
146.51077366906011
30
0
11
348.41448358770202
21
145.99777366906017
31
0
0
LINE
5
172
100
AcDbEntity
8
0
100
AcDbLine
10
348.27348358770189
20
18.456773669060095
30
0
11
348.15148358770193
21
17.955773669060093
31
0
0
LINE
5
173
100
AcDbEntity
8
0
100
AcDbLine
10
189.34148895070717
20
162.09982721378142
30
0
11
189.34148895070717
21
163.09982721378145
31
0
0
LINE
5
174
100
AcDbEntity
8
0
100
AcDbLine
10
17.41348358770189
20
12.878773669060164
30
0
11
16.933483587701875
21
13.067773669060117
31
0
0
LINE
5
175
100
AcDbEntity
8
0
100
AcDbLine
10
346.39948358770192
20
150.63577366906011
30
0
11
346.73848358770209
21
150.24677366906013
31
0
0
LINE
5
176
100
AcDbEntity
8
0
100
AcDbLine
10
346.03548358770189
20
14.474773669060141
30
0
11
345.64648358770194
21
14.135773669060116
31
0
0
LINE
5
177
100
AcDbEntity
8
0
100
AcDbLine
10
348.43148358770173
20
19.992773669060146
30
0
11
348.41448358770202
21
19.476773669060137
31
0
0
LINE
5
178
100
AcDbEntity
8
0
100
AcDbLine
10
347.80648358770173
20
16.984773669060186
30
0
11
347.5854835877019
21
16.518773669060138
31
0
0
LINE
5
179
100
AcDbEntity
8
0
100
AcDbLine
10
17.904483587701886
20
152.74277366906011
30
0
11
18.405483587701926
21
152.86477366906016
31
0
0
LINE
5
180
100
AcDbEntity
8
0
100
AcDbLine
10
173.34147822469674
20
162.09971996626703
30
0
11
171.34146025183429
21
162.09971996626703
31
0
0
LINE
5
181
100
AcDbEntity
8
0
100
AcDbLine
10
17.904483587701989
20
12.722773669060032
30
0
11
17.41348358770189
21
12.878773669060164
31
0
0
LINE
5
182
100
AcDbEntity
8
0
100
AcDbLine
10
14.085483587701901
20
15.227773669060127
30
0
11
13.773483587701886
21
15.6387736690602
31
0
0
LINE
5
183
100
AcDbEntity
8
0
100
AcDbLine
10
19.426483587701927
20
153.00477366906017
30
0
11
19.94148358770197
21
153.0227736690602
31
0
0
LINE
5
184
100
AcDbEntity
8
0
100
AcDbLine
10
12.46248358770192
20
18.964773669060122
30
0
11
12.409483587701864
21
19.476773669060137
31
0
0
LINE
5
185
100
AcDbEntity
8
0
100
AcDbLine
10
173.34146025183429
20
163.10002285769912
30
0
11
173.34146025183429
21
165.09999630972743
31
0
0
LINE
5
186
100
AcDbEntity
8
0
100
AcDbLine
10
347.33248358770203
20
16.069773669060154
30
0
11
347.0494835877019
21
15.6387736690602
31
0
0
LINE
5
187
100
AcDbEntity
8
0
100
AcDbLine
10
167.39148358770191
20
160.98277366906015
30
0
11
167.398483587702
21
160.9997736690602
31
0
0
LINE
5
188
100
AcDbEntity
8
0
100
AcDbLine
10
167.44148358770192
20
161.03277366906016
30
0
11
193.36148358770203
21
161.04277366906015
31
0
0
LINE
5
189
100
AcDbEntity
8
0
100
AcDbLine
10
193.39748358770183
20
161.02777366906022
30
0
11
193.404483587702
21
161.00977366906019
31
0
0
LINE
5
190
100
AcDbEntity
8
0
100
AcDbLine
10
348.15148358770193
20
17.955773669060093
30
0
11
347.99548358770187
21
17.463773669060174
31
0
0
LINE
5
191
100
AcDbEntity
8
0
100
AcDbLine
10
193.41148358770198
20
153.04277366906013
30
0
11
340.88148358770206
21
153.03277366906016
31
0
0
LINE
5
192
100
AcDbEntity
8
0
100
AcDbLine
10
347.33248358770203
20
149.40577366906015
30
0
11
347.5854835877019
21
148.95577366906019
31
0
0
LINE
5
193
100
AcDbEntity
8
0
100
AcDbLine
10
13.01648358770187
20
148.48077366906011
30
0
11
13.238483587701886
21
148.94577366906015
31
0
0
LINE
5
194
100
AcDbEntity
8
0
100
AcDbLine
10
343.41048358770189
20
152.5967736690601
30
0
11
343.88948358770187
21
152.40777366906016
31
0
0
LINE
5
195
100
AcDbEntity
8
0
100
AcDbLine
10
346.73848358770209
20
15.227773669060127
30
0
11
346.39948358770192
21
14.838773669060146
31
0
0
LINE
5
196
100
AcDbEntity
8
0
100
AcDbLine
10
347.99548358770187
20
17.463773669060174
30
0
11
347.80648358770173
21
16.984773669060186
31
0
0
LINE
5
197
100
AcDbEntity
8
0
100
AcDbLine
10
344.80448358770195
20
13.541773669060149
30
0
11
344.35548358770171
21
13.288773669060134
31
0
0
LINE
5
198
100
AcDbEntity
8
0
100
AcDbLine
10
345.23548358770194
20
13.824773669060164
30
0
11
344.80448358770195
21
13.541773669060149
31
0
0
LINE
5
199
100
AcDbEntity
8
0
100
AcDbLine
10
345.23548358770194
20
151.65077366906016
30
0
11
345.64648358770194
21
151.33877366906012
31
0
0
LINE
5
200
100
AcDbEntity
8
0
100
AcDbLine
10
347.0494835877019
20
15.6387736690602
30
0
11
346.73848358770209
21
15.227773669060127
31
0
0
LINE
5
201
100
AcDbEntity
8
0
100
AcDbLine
10
187.34148895070717
20
162.09982721378142
30
0
11
189.34148895070717
21
162.09982721378142
31
0
0
LINE
5
202
100
AcDbEntity
8
0
100
AcDbLine
10
345.64648358770194
20
14.135773669060116
30
0
11
345.23548358770194
21
13.824773669060164
31
0
0
LINE
5
203
100
AcDbEntity
8
0
100
AcDbLine
10
347.0494835877019
20
149.83677366906016
30
0
11
347.33248358770203
21
149.40577366906015
31
0
0
LINE
5
204
100
AcDbEntity
8
0
100
AcDbLine
10
341.9094835877018
20
152.96177366906016
30
0
11
342.41748358770189
21
152.8747736690602
31
0
0
LINE
5
205
100
AcDbEntity
8
0
100
AcDbLine
10
16.46848358770189
20
152.17577366906025
30
0
11
16.933483587701875
21
152.3977736690602
31
0
0
LINE
5
206
100
AcDbEntity
8
0
100
AcDbLine
10
348.27348358770189
20
147.01877366906015
30
0
11
348.36148358770203
21
146.51077366906011
31
0
0
LINE
5
207
100
AcDbEntity
8
0
100
AcDbLine
10
14.788483587701897
20
150.99077366906016
30
0
11
15.177483587701914
21
151.32877366906015
31
0
0
LINE
5
208
100
AcDbEntity
8
0
100
AcDbLine
10
345.64648358770194
20
151.33877366906012
30
0
11
346.03548358770189
21
151.00077366906015
31
0
0
LINE
5
209
100
AcDbEntity
8
0
100
AcDbLine
10
342.91848358770187
20
152.75277366906016
30
0
11
343.41048358770189
21
152.5967736690601
31
0
0
LINE
5
210
100
AcDbEntity
8
0
100
AcDbLine
10
346.03548358770189
20
151.00077366906015
30
0
11
346.39948358770192
21
150.63577366906011
31
0
0
LINE
5
211
100
AcDbEntity
8
0
100
AcDbLine
10
346.39948358770192
20
14.838773669060146
30
0
11
346.03548358770189
21
14.474773669060141
31
0
0
LINE
5
212
100
AcDbEntity
8
0
100
AcDbLine
10
340.88148358770206
20
153.03277366906016
30
0
11
341.39748358770186
21
153.01477366906016
31
0
0
LINE
5
213
100
AcDbEntity
8
0
100
AcDbLine
10
342.41748358770189
20
152.8747736690602
30
0
11
342.91848358770187
21
152.75277366906016
31
0
0
LINE
5
214
100
AcDbEntity
8
0
100
AcDbLine
10
173.34147822469674
20
162.09971996626703
30
0
11
187.34148895070717
21
162.09982721378142
31
0
0
LINE
5
215
100
AcDbEntity
8
0
100
AcDbLine
10
347.99548358770187
20
148.01077366906011
30
0
11
348.15148358770193
21
147.51977366906016
31
0
0
LINE
5
216
100
AcDbEntity
8
0
100
AcDbLine
10
347.5854835877019
20
148.95577366906019
30
0
11
347.80648358770173
21
148.49077366906016
31
0
0
LINE
5
217
100
AcDbEntity
8
0
100
AcDbLine
10
347.80648358770173
20
148.49077366906016
30
0
11
347.99548358770187
21
148.01077366906011
31
0
0
LINE
5
218
100
AcDbEntity
8
0
100
AcDbLine
10
347.5854835877019
20
16.518773669060138
30
0
11
347.33248358770203
21
16.069773669060154
31
0
0
LINE
5
219
100
AcDbEntity
8
0
100
AcDbLine
10
18.405483587701926
20
152.86477366906016
30
0
11
18.91348358770195
21
152.95177366906015
31
0
0
LINE
5
220
100
AcDbEntity
8
0
100
AcDbLine
10
193.41148358770198
20
160.99277366906017
30
0
11
193.41148358770198
21
153.04277366906013
31
0
0
LINE
5
221
100
AcDbEntity
8
0
100
AcDbLine
10
12.549483587701857
20
147.0087736690601
30
0
11
12.671483587701893
21
147.50977366906017
31
0
0
LINE
5
222
100
AcDbEntity
8
0
100
AcDbLine
10
16.018483587701944
20
13.541773669060078
30
0
11
15.587483587701989
21
13.824773669060093
31
0
0
LINE
5
223
100
AcDbEntity
8
0
100
AcDbLine
10
19.426483587701885
20
12.459773669060116
30
0
11
18.913483587701915
21
12.512773669060168
31
0
0
LINE
5
224
100
AcDbEntity
8
0
100
AcDbLine
10
348.41448358770202
20
19.476773669060137
30
0
11
348.36148358770203
21
18.964773669060122
31
0
0
LINE
5
225
100
AcDbEntity
8
0
100
AcDbLine
10
12.46248358770192
20
146.50077366906015
30
0
11
12.549483587701857
21
147.0087736690601
31
0
0
LINE
5
226
100
AcDbEntity
8
0
100
AcDbLine
10
12.39148358770187
20
145.47277366906019
30
0
11
12.409483587701864
21
145.9877736690602
31
0
0
LINE
5
227
100
AcDbEntity
8
0
100
AcDbLine
10
348.36148358770203
20
18.964773669060122
30
0
11
348.27348358770189
21
18.456773669060095
31
0
0
LINE
5
228
100
AcDbEntity
8
0
100
AcDbLine
10
341.39748358770186
20
12.459773669060116
30
0
11
340.88148358770189
21
12.442773669060117
31
0
0
LINE
5
229
100
AcDbEntity
8
0
100
AcDbLine
10
13.773483587701886
20
15.6387736690602
30
0
11
13.490483587701902
21
16.069773669060154
31
0
0
LINE
5
230
100
AcDbEntity
8
0
100
AcDbLine
10
344.80448358770195
20
151.93377366906014
30
0
11
345.23548358770194
21
151.65077366906016
31
0
0
LINE
5
231
100
AcDbEntity
8
0
100
AcDbLine
10
12.549483587701857
20
18.456773669060095
30
0
11
12.46248358770192
21
18.964773669060122
31
0
0
LINE
5
232
100
AcDbEntity
8
0
100
AcDbLine
10
348.43148358770173
20
145.48277366906018
30
0
11
348.43148358770173
21
19.992773669060146
31
0
0
LINE
5
233
100
AcDbEntity
8
0
100
AcDbLine
10
341.39748358770186
20
153.01477366906016
30
0
11
341.9094835877018
21
152.96177366906016
31
0
0
LINE
5
234
100
AcDbEntity
8
0
100
AcDbLine
10
12.39148358770187
20
19.992773669060146
30
0
11
12.39148358770187
21
145.47277366906019
31
0
0
LINE
5
235
100
AcDbEntity
8
0
100
AcDbLine
10
348.15148358770193
20
147.51977366906016
30
0
11
348.27348358770189
21
147.01877366906015
31
0
0
LINE
5
236
100
AcDbEntity
8
0
100
AcDbLine
10
13.01648358770187
20
16.984773669060186
30
0
11
12.82748358770192
21
17.463773669060174
31
0
0
CIRCLE
5
237
100
AcDbEntity
8
0
100
AcDbCircle
10
353.17999999999984
20
7.5000000000001199
30
0
40
3.350000000000005
210
0
220
0
230
1
0
CIRCLE
5
238
100
AcDbEntity
8
0
100
AcDbCircle
10
353.17999999999995
20
82.549999999999983
30
0
40
3.3500000000000063
210
0
220
0
230
1
0
CIRCLE
5
239
100
AcDbEntity
8
0
100
AcDbCircle
10
122.72660000000002
20
7.4999999999999964
30
0
40
3.3500000000000036
210
0
220
0
230
1
0
CIRCLE
5
240
100
AcDbEntity
8
0
100
AcDbCircle
10
7.4999999999999911
20
7.4999999999999947
30
0
40
3.3500000000000005
210
0
220
0
230
1
0
CIRCLE
5
241
100
AcDbEntity
8
0
100
AcDbCircle
10
237.95339999999999
20
7.5000000000000462
30
0
40
3.3500000000000019
210
0
220
0
230
1
0
LINE
5
242
100
AcDbEntity
8
0
100
AcDbLine
10
348.41448358770202
20
145.99777366906017
30
0
11
348.43148358770173
21
145.48277366906018
31
0
0
LINE
5
243
100
AcDbEntity
8
0
100
AcDbLine
10
14.788483587701897
20
14.474773669060141
30
0
11
14.423483587701895
21
14.838773669060146
31
0
0
CIRCLE
5
244
100
AcDbEntity
8
0
100
AcDbCircle
10
7.4999999999999867
20
82.549999999999983
30
0
40
3.3500000000000023
210
0
220
0
230
1
0
CIRCLE
5
245
100
AcDbEntity
8
0
100
AcDbCircle
10
7.4999999999999689
20
157.60000000000014
30
0
40
3.3500000000000036
210
0
220
0
230
1
0
LINE
5
246
100
AcDbEntity
8
0
100
AcDbLine
10
346.73848358770209
20
150.24677366906013
30
0
11
347.0494835877019
21
149.83677366906016
31
0
0
LINE
5
247
100
AcDbEntity
8
0
100
AcDbLine
10
344.35548358770171
20
152.18577366906015
30
0
11
344.80448358770195
21
151.93377366906014
31
0
0
LINE
5
248
100
AcDbEntity
8
0
100
AcDbLine
10
167.4064835877019
20
161.0177736690602
30
0
11
167.398483587702
21
160.9997736690602
31
0
0
LINE
5
249
100
AcDbEntity
8
0
100
AcDbLine
10
16.468483587701993
20
13.288773669060063
30
0
11
16.018483587701944
21
13.541773669060078
31
0
0
CIRCLE
5
250
100
AcDbEntity
8
0
100
AcDbCircle
10
122.72660000000002
20
157.60000000000005
30
0
40
3.349999999999993
210
0
220
0
230
1
0
LINE
5
251
100
AcDbEntity
8
0
100
AcDbLine
10
344.35548358770171
20
13.288773669060134
30
0
11
343.88948358770187
21
13.067773669060117
31
0
0
LINE
5
252
100
AcDbEntity
8
0
100
AcDbLine
10
12.39148358770187
20
19.992773669060146
30
0
11
12.409483587701864
21
19.476773669060137
31
0
0
LINE
5
253
100
AcDbEntity
8
0
100
AcDbLine
10
343.88948358770187
20
152.40777366906016
30
0
11
344.35548358770171
21
152.18577366906015
31
0
0
LINE
5
254
100
AcDbEntity
8
0
100
AcDbLine
10
12.409483587701864
20
145.9877736690602
30
0
11
12.46248358770192
21
146.50077366906015
31
0
0
LINE
5
255
100
AcDbEntity
8
0
100
AcDbLine
10
12.82748358770192
20
17.463773669060174
30
0
11
12.671483587701893
21
17.955773669060093
31
0
0
CIRCLE
5
256
100
AcDbEntity
8
0
100
AcDbCircle
10
353.17999999999984
20
157.59999999999997
30
0
40
3.3499999999999766
210
0
220
0
230
1
0
LINE
5
257
100
AcDbEntity
8
0
100
AcDbLine
10
175.57148358770201
20
162.09977359002426
30
0
11
185.11148358770191
21
162.09977359002426
31
0
0
CIRCLE
5
258
100
AcDbEntity
8
0
100
AcDbCircle
10
237.95339999999999
20
157.59999999999997
30
0
40
3.350000000000009
210
0
220
0
230
1
0
LWPOLYLINE
5
259
100
AcDbEntity
8
0
100
AcDbPolyline
90
8
70
1
43
0.0
10
31.487325385391145
20
28.986227594401363
42
0.41421356237309503
10
32.887325400292305
20
27.5862275795002
10
39.287325400292296
20
27.5862275795002
42
0.4142135623730932
10
40.687325415193463
20
28.986227594401367
10
40.687325415193463
20
29.586227594401361
42
0.41421356237309598
10
39.287325400292296
20
30.986227609302528
10
32.887325400292305
20
30.986227609302517
42
0.4142135623730922
10
31.487325385391145
20
29.586227594401361
0
LWPOLYLINE
5
260
100
AcDbEntity
8
0
100
AcDbPolyline
90
4
70
1
43
0.0
10
46.637325400292305
20
33.78622759440136
10
25.537325400292303
20
33.78622759440136
10
25.537325400292303
20
24.78622759440136
10
46.637325400292305
20
24.78622759440136
0
LWPOLYLINE
5
261
100
AcDbEntity
8
0
100
AcDbPolyline
90
4
70
1
43
0.0
10
47.087691335589255
20
39.808183712220384
10
47.087691335589255
20
48.808183712220377
10
25.78769133558929
20
48.808183712220377
10
25.78769133558929
20
39.808183712220384
0
LWPOLYLINE
5
262
100
AcDbEntity
8
0
100
AcDbPolyline
90
8
70
1
43
0.0
10
33.237691335589282
20
42.60818369731922
10
39.63769133558926
20
42.60818369731922
42
0.41421356237309781
10
41.037691350490427
20
44.008183712220386
10
41.037691350490427
20
44.608183712220381
42
0.41421356237309503
10
39.637691335589267
20
46.008183727121541
10
33.237691335589275
20
46.008183727121541
42
0.4142135623730932
10
31.837691320688126
20
44.608183712220381
10
31.837691320688126
20
44.008183712220379
42
0.41421356237309503
0
LWPOLYLINE
5
263
100
AcDbEntity
8
0
100
AcDbPolyline
90
8
70
1
43
0.0
10
41.388057285787383
20
58.279042024148424
10
41.388057285787383
20
58.879042024148418
42
0.41421356237309598
10
39.988057270886216
20
60.279042039049585
10
33.588057270886225
20
60.279042039049585
42
0.4142135623730932
10
32.188057255985072
20
58.879042024148418
10
32.188057255985072
20
58.279042024148424
42
0.41421356237309503
10
33.588057270886232
20
56.879042009247264
10
39.988057270886216
20
56.879042009247264
42
0.4142135623730932
0
LWPOLYLINE
5
264
100
AcDbEntity
8
0
100
AcDbPolyline
90
4
70
1
43
0.0
10
26.038057270886235
20
63.079042024148421
10
26.038057270886235
20
54.079042024148421
10
47.53805727088622
20
54.079042024148421
10
47.53805727088622
20
63.079042024148421
0
LWPOLYLINE
5
265
100
AcDbEntity
8
0
100
AcDbPolyline
90
8
70
1
43
0.0
10
60.729773879841161
20
58.27904202414836
42
0.41421356237309503
10
62.129773894742314
20
56.879042009247208
10
68.529773894742291
20
56.879042009247208
42
0.4142135623730932
10
69.929773909643444
20
58.27904202414836
10
69.929773909643444
20
58.879042024148362
42
0.41421356237309503
10
68.529773894742306
20
60.279042039049521
10
62.129773894742314
20
60.279042039049521
42
0.41421356237309503
10
60.729773879841161
20
58.879042024148362
0
LWPOLYLINE
5
266
100
AcDbEntity
8
0
100
AcDbPolyline
90
4
70
1
43
0.0
10
54.079042024148393
20
33.786227594401325
10
54.079042024148393
20
24.786227594401335
10
75.179042024148387
20
24.786227594401335
10
75.179042024148387
20
33.786227594401325
0
LWPOLYLINE
5
267
100
AcDbEntity
8
0
100
AcDbPolyline
90
4
70
1
43
0.0
10
54.579773894742317
20
63.079042024148357
10
54.579773894742317
20
54.079042024148372
10
76.079773894742289
20
54.079042024148372
10
76.079773894742289
20
63.079042024148357
0
LWPOLYLINE
5
268
100
AcDbEntity
8
0
100
AcDbPolyline
90
4
70
1
43
0.0
10
54.329407959445383
20
39.808183712220348
10
75.629407959445331
20
39.808183712220348
10
75.629407959445331
20
48.808183712220334
10
54.329407959445383
20
48.808183712220334
0
LWPOLYLINE
5
269
100
AcDbEntity
8
0
100
AcDbPolyline
90
8
70
1
43
0.0
10
61.429042024148387
20
30.986227609302492
42
0.41421356237309043
10
60.029042009247235
20
29.586227594401329
10
60.029042009247235
20
28.986227594401331
42
0.41421356237309503
10
61.429042024148394
20
27.586227579500175
10
67.829042024148379
20
27.586227579500175
42
0.41421356237309415
10
69.229042039049546
20
28.986227594401335
10
69.229042039049546
20
29.586227594401329
42
0.41421356237309692
10
67.829042024148379
20
30.986227609302496
0
LWPOLYLINE
5
270
100
AcDbEntity
8
0
100
AcDbPolyline
90
8
70
1
43
0.0
10
68.179407959445342
20
42.608183697319177
42
0.41421356237309875
10
69.579407974346509
20
44.008183712220344
10
69.579407974346509
20
44.608183712220331
42
0.41421356237309503
10
68.179407959445342
20
46.008183727121491
10
61.779407959445365
20
46.008183727121491
42
0.4142135623730932
10
60.379407944544212
20
44.608183712220331
10
60.379407944544212
20
44.008183712220337
42
0.41421356237309503
10
61.779407959445365
20
42.608183697319177
0
LWPOLYLINE
5
271
100
AcDbEntity
8
0
100
AcDbPolyline
90
8
70
1
43
0.0
10
39.988057270886216
20
56.879042009247264
42
0.4142135623730932
10
41.388057285787383
20
58.279042024148424
10
41.388057285787383
20
58.879042024148418
42
0.41421356237309598
10
39.988057270886216
20
60.279042039049585
10
33.588057270886225
20
60.279042039049585
42
0.4142135623730932
10
32.188057255985072
20
58.879042024148418
10
32.188057255985072
20
58.279042024148424
42
0.41421356237309503
10
33.588057270886232
20
56.879042009247264
0
LWPOLYLINE
5
272
100
AcDbEntity
8
0
100
AcDbPolyline
90
8
70
1
43
0.0
10
33.237691335589282
20
42.60818369731922
10
39.63769133558926
20
42.60818369731922
42
0.41421356237309781
10
41.037691350490427
20
44.008183712220386
10
41.037691350490427
20
44.608183712220381
42
0.41421356237309503
10
39.637691335589267
20
46.008183727121541
10
33.237691335589275
20
46.008183727121541
42
0.4142135623730932
10
31.837691320688126
20
44.608183712220381
10
31.837691320688126
20
44.008183712220379
42
0.41421356237309503
0
LWPOLYLINE
5
273
100
AcDbEntity
8
0
100
AcDbPolyline
90
8
70
1
43
0.0
10
67.829042024148379
20
27.586227579500175
42
0.41421356237309415
10
69.229042039049546
20
28.986227594401335
10
69.229042039049546
20
29.586227594401329
42
0.41421356237309692
10
67.829042024148379
20
30.986227609302496
10
61.429042024148387
20
30.986227609302492
42
0.41421356237309043
10
60.029042009247235
20
29.586227594401329
10
60.029042009247235
20
28.986227594401331
42
0.41421356237309503
10
61.429042024148394
20
27.586227579500175
0
LWPOLYLINE
5
274
100
AcDbEntity
8
0
100
AcDbPolyline
90
4
70
1
43
0.0
10
46.637325400292305
20
33.78622759440136
10
25.537325400292303
20
33.78622759440136
10
25.537325400292303
20
24.78622759440136
10
46.637325400292305
20
24.78622759440136
0
LWPOLYLINE
5
275
100
AcDbEntity
8
0
100
AcDbPolyline
90
8
70
1
43
0.0
10
32.887325400292305
20
27.5862275795002
10
39.287325400292296
20
27.5862275795002
42
0.4142135623730932
10
40.687325415193463
20
28.986227594401367
10
40.687325415193463
20
29.586227594401361
42
0.41421356237309598
10
39.287325400292296
20
30.986227609302528
10
32.887325400292305
20
30.986227609302524
42
0.4142135623730922
10
31.487325385391145
20
29.586227594401361
10
31.487325385391145
20
28.986227594401363
42
0.41421356237309503
0
LWPOLYLINE
5
276
100
AcDbEntity
8
0
100
AcDbPolyline
90
4
70
1
43
0.0
10
25.78769133558929
20
48.808183712220377
10
25.78769133558929
20
39.808183712220384
10
47.087691335589255
20
39.808183712220384
10
47.087691335589255
20
48.808183712220377
0
LWPOLYLINE
5
277
100
AcDbEntity
8
0
100
AcDbPolyline
90
4
70
1
43
0.0
10
54.079042024148393
20
24.786227594401335
10
75.179042024148387
20
24.786227594401335
10
75.179042024148387
20
33.786227594401325
10
54.079042024148393
20
33.786227594401325
0
LWPOLYLINE
5
278
100
AcDbEntity
8
0
100
AcDbPolyline
90
4
70
1
43
0.0
10
76.079773894742289
20
54.079042024148372
10
76.079773894742289
20
63.079042024148357
10
54.579773894742317
20
63.079042024148357
10
54.579773894742317
20
54.079042024148372
0
LWPOLYLINE
5
279
100
AcDbEntity
8
0
100
AcDbPolyline
90
8
70
1
43
0.0
10
62.129773894742314
20
56.879042009247208
10
68.529773894742291
20
56.879042009247208
42
0.4142135623730932
10
69.929773909643444
20
58.27904202414836
10
69.929773909643444
20
58.879042024148362
42
0.41421356237309503
10
68.529773894742306
20
60.279042039049521
10
62.129773894742314
20
60.279042039049521
42
0.41421356237309503
10
60.729773879841161
20
58.879042024148362
10
60.729773879841161
20
58.27904202414836
42
0.41421356237309503
0
LWPOLYLINE
5
280
100
AcDbEntity
8
0
100
AcDbPolyline
90
4
70
1
43
0.0
10
26.038057270886235
20
63.079042024148421
10
26.038057270886235
20
54.079042024148421
10
47.53805727088622
20
54.079042024148421
10
47.53805727088622
20
63.079042024148421
0
LWPOLYLINE
5
281
100
AcDbEntity
8
0
100
AcDbPolyline
90
4
70
1
43
0.0
10
54.329407959445383
20
48.808183712220334
10
54.329407959445383
20
39.808183712220348
10
75.629407959445331
20
39.808183712220348
10
75.629407959445331
20
48.808183712220334
0
LWPOLYLINE
5
282
100
AcDbEntity
8
0
100
AcDbPolyline
90
8
70
1
43
0.0
10
68.179407959445342
20
46.008183727121491
10
61.779407959445365
20
46.008183727121491
42
0.4142135623730932
10
60.379407944544212
20
44.608183712220331
10
60.379407944544212
20
44.008183712220337
42
0.41421356237309503
10
61.779407959445365
20
42.608183697319177
10
68.179407959445342
20
42.608183697319177
42
0.41421356237309875
10
69.579407974346509
20
44.008183712220344
10
69.579407974346509
20
44.608183712220331
42
0.41421356237309503
0
LWPOLYLINE
5
283
100
AcDbEntity
8
0
100
AcDbPolyline
90
4
70
1
43
0.0
10
102.91929490681653
20
39.057085906329412
10
102.91929490681653
20
48.057085906329391
10
81.619294906816577
20
48.057085906329391
10
81.619294906816577
20
39.057085906329412
0
LWPOLYLINE
5
284
100
AcDbEntity
8
0
100
AcDbPolyline
90
4
70
1
43
0.0
10
110.16101153067265
20
48.057085906329348
10
110.16101153067265
20
39.05708590632937
10
131.46101153067258
20
39.05708590632937
10
131.46101153067258
20
48.057085906329348
0
LWPOLYLINE
5
285
100
AcDbEntity
8
0
100
AcDbPolyline
90
4
70
1
43
0.0
10
81.368928971519594
20
33.035129788510389
10
81.368928971519594
20
24.035129788510396
10
102.46892897151959
20
24.035129788510396
10
102.46892897151959
20
33.035129788510389
0
LWPOLYLINE
5
286
100
AcDbEntity
8
0
100
AcDbPolyline
90
8
70
1
43
0.0
10
124.01101153067259
20
41.857085891428198
42
0.41421356237310064
10
125.41101154557379
20
43.257085906329365
10
125.41101154557379
20
43.85708590632936
42
0.41421356237309503
10
124.0110115306726
20
45.257085921230519
10
117.61101153067261
20
45.257085921230519
42
0.41421356237309132
10
116.21101151577147
20
43.85708590632936
10
116.21101151577147
20
43.257085906329358
42
0.41421356237309503
10
117.61101153067261
20
41.857085891428198
0
LWPOLYLINE
5
287
100
AcDbEntity
8
0
100
AcDbPolyline
90
4
70
1
43
0.0
10
131.01064559537565
20
24.035129788510368
10
131.01064559537565
20
33.035129788510353
10
109.91064559537566
20
33.035129788510353
10
109.91064559537566
20
24.035129788510368
0
LWPOLYLINE
5
288
100
AcDbEntity
8
0
100
AcDbPolyline
90
8
70
1
43
0.0
10
116.21101151577147
20
43.85708590632936
10
116.21101151577147
20
43.257085906329358
42
0.41421356237309503
10
117.61101153067261
20
41.857085891428198
10
124.01101153067259
20
41.857085891428198
42
0.41421356237310064
10
125.41101154557379
20
43.257085906329365
10
125.41101154557379
20
43.85708590632936
42
0.41421356237309503
10
124.0110115306726
20
45.257085921230519
10
117.61101153067261
20
45.257085921230519
42
0.41421356237309132
0
LWPOLYLINE
5
289
100
AcDbEntity
8
0
100
AcDbPolyline
90
8
70
1
43
0.0
10
87.669294891915413
20
43.857085906329402
10
87.669294891915413
20
43.257085906329408
42
0.41421356237309503
10
89.069294906816566
20
41.857085891428241
10
95.469294906816543
20
41.857085891428241
42
0.41421356237310064
10
96.86929492171771
20
43.257085906329415
10
96.86929492171771
20
43.857085906329402
42
0.41421356237309503
10
95.469294906816557
20
45.257085921230562
10
89.069294906816566
20
45.257085921230562
42
0.41421356237309503
0
LWPOLYLINE
5
290
100
AcDbEntity
8
0
100
AcDbPolyline
90
8
70
1
43
0.0
10
117.26064559537565
20
26.835129773609204
10
123.66064559537563
20
26.835129773609204
42
0.41421356237309415
10
125.06064561027682
20
28.235129788510367
10
125.06064561027682
20
28.835129788510365
42
0.41421356237309875
10
123.66064559537563
20
30.235129803411525
10
117.26064559537565
20
30.235129803411521
42
0.41421356237309415
10
115.86064558047451
20
28.835129788510365
10
115.86064558047451
20
28.235129788510363
42
0.41421356237309503
0
LWPOLYLINE
5
291
100
AcDbEntity
8
0
100
AcDbPolyline
90
4
70
1
43
0.0
10
110.16101153067265
20
39.05708590632937
10
131.46101153067258
20
39.05708590632937
10
131.46101153067258
20
48.057085906329348
10
110.16101153067265
20
48.057085906329348
0
LWPOLYLINE
5
292
100
AcDbEntity
8
0
100
AcDbPolyline
90
8
70
1
43
0.0
10
89.419660842113515
20
59.527944233158586
42
0.41421356237309503
10
88.019660827212363
20
58.127944218257433
10
88.019660827212363
20
57.527944218257439
42
0.41421356237309503
10
89.419660842113515
20
56.127944203356279
10
95.819660842113478
20
56.127944203356279
42
0.4142135623730932
10
97.219660857014674
20
57.527944218257439
10
97.219660857014674
20
58.127944218257433
42
0.41421356237309503
10
95.819660842113507
20
59.527944233158586
0
LWPOLYLINE
5
293
100
AcDbEntity
8
0
100
AcDbPolyline
90
8
70
1
43
0.0
10
95.11892897151958
20
30.235129803411557
10
88.718928971519588
20
30.235129803411553
42
0.41421356237309415
10
87.318928956618436
20
28.835129788510393
10
87.318928956618436
20
28.235129788510392
42
0.41421356237309503
10
88.718928971519588
20
26.835129773609232
10
95.11892897151958
20
26.835129773609232
42
0.41421356237309415
10
96.518928986420747
20
28.235129788510399
10
96.518928986420747
20
28.835129788510393
42
0.41421356237309875
0
LWPOLYLINE
5
294
100
AcDbEntity
8
0
100
AcDbPolyline
90
4
70
1
43
0.0
10
110.41137746596959
20
62.327944218257365
10
110.41137746596959
20
53.327944218257386
10
131.91137746596954
20
53.327944218257386
10
131.91137746596954
20
62.327944218257365
0
LWPOLYLINE
5
295
100
AcDbEntity
8
0
100
AcDbPolyline
90
8
70
1
43
0.0
10
117.96137746596958
20
59.527944233158522
42
0.41421356237309503
10
116.56137745106844
20
58.127944218257369
10
116.56137745106844
20
57.527944218257375
42
0.41421356237309503
10
117.96137746596958
20
56.127944203356222
10
124.36137746596955
20
56.127944203356222
42
0.4142135623730932
10
125.76137748087071
20
57.527944218257375
10
125.76137748087071
20
58.127944218257369
42
0.41421356237309503
10
124.36137746596955
20
59.527944233158522
0
LWPOLYLINE
5
296
100
AcDbEntity
8
0
100
AcDbPolyline
90
8
70
1
43
0.0
10
117.96137746596958
20
56.127944203356222
10
124.36137746596955
20
56.127944203356222
42
0.4142135623730932
10
125.76137748087071
20
57.527944218257375
10
125.76137748087071
20
58.127944218257369
42
0.41421356237309503
10
124.36137746596955
20
59.527944233158522
10
117.96137746596958
20
59.527944233158522
42
0.41421356237309503
10
116.56137745106844
20
58.127944218257369
10
116.56137745106844
20
57.527944218257375
42
0.41421356237309503
0
LWPOLYLINE
5
297
100
AcDbEntity
8
0
100
AcDbPolyline
90
8
70
1
43
0.0
10
87.669294891915413
20
43.857085906329402
10
87.669294891915413
20
43.257085906329408
42
0.41421356237309503
10
89.069294906816566
20
41.857085891428241
10
95.469294906816543
20
41.857085891428241
42
0.41421356237310064
10
96.86929492171771
20
43.257085906329415
10
96.86929492171771
20
43.857085906329402
42
0.41421356237309503
10
95.469294906816557
20
45.257085921230562
10
89.069294906816566
20
45.257085921230562
42
0.41421356237309503
0
LWPOLYLINE
5
298
100
AcDbEntity
8
0
100
AcDbPolyline
90
8
70
1
43
0.0
10
123.66064559537563
20
30.235129803411525
10
117.26064559537565
20
30.235129803411521
42
0.41421356237309415
10
115.86064558047451
20
28.835129788510365
10
115.86064558047451
20
28.235129788510363
42
0.41421356237309503
10
117.26064559537565
20
26.835129773609204
10
123.66064559537563
20
26.835129773609204
42
0.41421356237309415
10
125.06064561027682
20
28.235129788510367
10
125.06064561027682
20
28.835129788510365
42
0.41421356237309875
0
LWPOLYLINE
5
299
100
AcDbEntity
8
0
100
AcDbPolyline
90
4
70
1
43
0.0
10
81.869660842113518
20
53.327944218257443
10
103.36966084211349
20
53.327944218257443
10
103.36966084211349
20
62.327944218257429
10
81.869660842113518
20
62.327944218257429
0
LWPOLYLINE
5
300
100
AcDbEntity
8
0
100
AcDbPolyline
90
8
70
1
43
0.0
10
97.219660857014674
20
58.127944218257433
42
0.41421356237309503
10
95.819660842113507
20
59.527944233158586
10
89.419660842113515
20
59.527944233158586
42
0.41421356237309503
10
88.019660827212363
20
58.127944218257433
10
88.019660827212363
20
57.527944218257439
42
0.41421356237309503
10
89.419660842113515
20
56.127944203356279
10
95.819660842113478
20
56.127944203356279
42
0.4142135623730932
10
97.219660857014674
20
57.527944218257439
0
LWPOLYLINE
5
301
100
AcDbEntity
8
0
100
AcDbPolyline
90
4
70
1
43
0.0
10
103.36966084211349
20
62.327944218257429
10
81.869660842113518
20
62.327944218257429
10
81.869660842113518
20
53.327944218257443
10
103.36966084211349
20
53.327944218257443
0
LWPOLYLINE
5
302
100
AcDbEntity
8
0
100
AcDbPolyline
90
4
70
1
43
0.0
10
131.01064559537565
20
33.035129788510353
10
109.91064559537566
20
33.035129788510353
10
109.91064559537566
20
24.035129788510368
10
131.01064559537565
20
24.035129788510368
0
LWPOLYLINE
5
303
100
AcDbEntity
8
0
100
AcDbPolyline
90
8
70
1
43
0.0
10
88.718928971519588
20
26.835129773609232
10
95.11892897151958
20
26.835129773609232
42
0.41421356237309415
10
96.518928986420747
20
28.235129788510399
10
96.518928986420747
20
28.835129788510393
42
0.41421356237309875
10
95.11892897151958
20
30.235129803411557
10
88.718928971519588
20
30.235129803411553
42
0.41421356237309415
10
87.318928956618436
20
28.835129788510393
10
87.318928956618436
20
28.235129788510392
42
0.41421356237309503
0
LWPOLYLINE
5
304
100
AcDbEntity
8
0
100
AcDbPolyline
90
4
70
1
43
0.0
10
81.368928971519594
20
33.035129788510389
10
81.368928971519594
20
24.035129788510396
10
102.46892897151959
20
24.035129788510396
10
102.46892897151959
20
33.035129788510389
0
LWPOLYLINE
5
305
100
AcDbEntity
8
0
100
AcDbPolyline
90
4
70
1
43
0.0
10
131.91137746596954
20
53.327944218257386
10
131.91137746596954
20
62.327944218257365
10
110.41137746596959
20
62.327944218257365
10
110.41137746596959
20
53.327944218257386
0
LWPOLYLINE
5
306
100
AcDbEntity
8
0
100
AcDbPolyline
90
4
70
1
43
0.0
10
81.619294906816577
20
39.057085906329412
10
102.91929490681653
20
39.057085906329412
10
102.91929490681653
20
48.057085906329391
10
81.619294906816577
20
48.057085906329391
0
ENDSEC
0
SECTION
2
OBJECTS
0
DICTIONARY
5
C
100
AcDbDictionary
3
ACAD_GROUP
350
D
3
ACAD_MLINESTYLE
350
17
0
DICTIONARY
5
D
100
AcDbDictionary
0
DICTIONARY
5
1A
330
C
100
AcDbDictionary
0
DICTIONARY
5
17
100
AcDbDictionary
0
ENDSEC
0
EOF
