0
SECTION
2
HEADER
9
$INSUNITS
70
4
9
$ACADVER
1
AC1014
9
$HANDSEED
5
FFFF
0
ENDSEC
0
SECTION
2
TABLES
0
TABLE
2
VPORT
5
8
100
AcDbSymbolTable
0
ENDTAB
0
TABLE
2
LTYPE
5
5
100
AcDbSymbolTable
0
LTYPE
5
14
100
AcDbSymbolTableRecord
100
AcDbLinetypeTableRecord
2
BYBLOCK
70
0
0
LTYPE
5
15
100
AcDbSymbolTableRecord
100
AcDbLinetypeTableRecord
2
BYLAYER
70
0
0
ENDTAB
0
TABLE
2
LAYER
5
2
100
AcDbSymbolTable
70
2
0
LAYER
5
50
100
AcDbSymbolTableRecord
100
AcDbLayerTableRecord
2
0
70
0
6
CONTINUOUS
0
ENDTAB
0
TABLE
2
STYLE
5
3
100
AcDbSymbolTable
70
1
0
STYLE
5
11
100
AcDbSymbolTableRecord
100
AcDbTextStyleTableRecord
2
STANDARD
70
0
0
ENDTAB
0
TABLE
2
VIEW
5
6
100
AcDbSymbolTable
70
0
0
ENDTAB
0
TABLE
2
UCS
5
7
100
AcDbSymbolTable
70
0
0
ENDTAB
0
TABLE
2
APPID
5
9
100
AcDbSymbolTable
70
2
0
APPID
5
12
100
AcDbSymbolTableRecord
100
AcDbRegAppTableRecord
2
ACAD
70
0
0
ENDTAB
0
TABLE
2
DIMSTYLE
5
A
100
AcDbSymbolTable
70
1
0
ENDTAB
0
TABLE
2
BLOCK_RECORD
5
1
100
AcDbSymbolTable
70
1
0
BLOCK_RECORD
5
1F
100
AcDbSymbolTableRecord
100
AcDbBlockTableRecord
2
*MODEL_SPACE
0
BLOCK_RECORD
5
1B
100
AcDbSymbolTableRecord
100
AcDbBlockTableRecord
2
*PAPER_SPACE
0
ENDTAB
0
ENDSEC
0
SECTION
2
BLOCKS
0
BLOCK
5
20
100
AcDbEntity
100
AcDbBlockBegin
2
*MODEL_SPACE
0
ENDBLK
5
21
100
AcDbEntity
100
AcDbBlockEnd
0
BLOCK
5
1C
100
AcDbEntity
100
AcDbBlockBegin
2
*PAPER_SPACE
0
ENDBLK
5
1D
100
AcDbEntity
100
AcDbBlockEnd
0
ENDSEC
0
SECTION
2
ENTITIES
0
LINE
5
100
100
AcDbEntity
8
0
100
AcDbLine
10
189.34148895070717
20
163.09982721378145
30
0
11
187.34148895070717
21
163.09982721378145
31
0
0
LINE
5
101
100
AcDbEntity
8
0
100
AcDbLine
10
187.34148895070717
20
162.09982721378142
30
0
11
189.34148895070717
21
162.09982721378142
31
0
0
LINE
5
102
100
AcDbEntity
8
0
100
AcDbLine
10
189.34148895070717
20
162.09982721378142
30
0
11
189.34148895070717
21
163.09982721378145
31
0
0
LINE
5
103
100
AcDbEntity
8
0
100
AcDbLine
10
173.34146025183429
20
163.10002285769912
30
0
11
173.34146025183429
21
165.09999630972743
31
0
0
LINE
5
104
100
AcDbEntity
8
0
100
AcDbLine
10
173.34147822469674
20
162.09971996626703
30
0
11
171.34146025183429
21
162.09971996626703
31
0
0
LINE
5
105
100
AcDbEntity
8
0
100
AcDbLine
10
187.34148895070717
20
163.09982721378145
30
0
11
187.34148895070717
21
165.09999630972743
31
0
0
LINE
5
106
100
AcDbEntity
8
0
100
AcDbLine
10
171.34146025183429
20
162.09971996626703
30
0
11
171.34146025183429
21
163.10002285769912
31
0
0
LINE
5
107
100
AcDbEntity
8
0
100
AcDbLine
10
171.34146025183429
20
163.10002285769912
30
0
11
173.34146025183429
21
163.10002285769912
31
0
0
LINE
5
108
100
AcDbEntity
8
0
100
AcDbLine
10
173.34147822469674
20
162.09971996626703
30
0
11
187.34148895070717
21
162.09982721378142
31
0
0
LINE
5
109
100
AcDbEntity
8
0
100
AcDbLine
10
169.80948358770183
20
33.344773669060146
30
0
11
169.791483587702
21
33.387773669060152
31
0
0
LINE
5
110
100
AcDbEntity
8
0
100
AcDbLine
10
169.85148358770203
20
33.32777366906015
30
0
11
169.80948358770183
21
33.344773669060146
31
0
0
LINE
5
111
100
AcDbEntity
8
0
100
AcDbLine
10
175.57148358770201
20
162.09977359002426
30
0
11
185.11148358770191
21
162.09977359002426
31
0
0
LWPOLYLINE
5
112
100
AcDbEntity
8
0
100
AcDbPolyline
90
41
70
1
43
0.0
10
190.20928358770198
20
158.53577359002423
10
190.06248358770199
20
158.94037359002425
10
189.882183587702
20
159.33117359002424
10
189.669683587702
20
159.70537359002429
10
189.42628358770202
20
160.06037359002426
10
189.15388358770198
20
160.39357359002423
10
188.85448358770202
20
160.70267359002426
10
188.52998358770202
20
160.98547359002427
10
188.18288358770195
20
161.23987359002427
10
187.81558358770198
20
161.46417359002427
10
187.43068358770199
20
161.65677359002427
10
187.03098358770202
20
161.81627359002425
10
186.619283587702
20
161.94157359002423
10
186.19838358770207
20
162.03167359002433
10
185.77148358770199
20
162.08607359002428
10
185.35128358770206
20
162.10387359002425
10
185.34818358770198
20
162.10257359002424
10
185.34148358770199
20
162.09977359002426
10
175.34148358770196
20
162.09977359002426
10
175.33158358770206
20
162.10387359002425
10
174.91148358770198
20
162.08607359002428
10
174.4845835877021
20
162.03167359002438
10
174.06368358770212
20
161.94157359002432
10
173.65198358770198
20
161.81627359002425
10
173.25218358770198
20
161.65687359002425
10
172.86738358770205
20
161.46427359002428
10
172.50008358770202
20
161.23987359002427
10
172.15288358770206
20
160.98547359002427
10
171.82848358770198
20
160.70267359002426
10
171.52898358770202
20
160.39357359002423
10
171.25668358770201
20
160.06037359002426
10
171.01328358770201
20
159.70537359002429
10
170.80068358770203
20
159.33117359002418
10
170.62038358770201
20
158.94037359002425
10
170.473683587702
20
158.53577359002418
10
170.36418358770197
20
158.13027359002427
10
170.36648358770205
20
158.12477359002423
10
170.36648358770205
20
148.64977359002427
10
190.31648358770198
20
148.64977359002427
10
190.31648358770198
20
158.12477359002423
10
190.318783587702
20
158.13027359002427
0
LWPOLYLINE
5
113
100
AcDbEntity
8
0
100
AcDbPolyline
90
4
70
1
43
0.0
10
341.67979523233146
20
104.89067165182313
10
327.67979523233123
20
104.89067165182313
10
327.67979523233123
20
90.890671651823141
10
341.67979523233146
20
90.890671651823141
0
CIRCLE
5
114
100
AcDbEntity
8
0
100
AcDbCircle
10
122.72660000000002
20
7.4999999999999964
30
0
40
2.600000000000013
210
0
220
0
230
1
0
CIRCLE
5
115
100
AcDbEntity
8
0
100
AcDbCircle
10
7.4999999999999911
20
7.4999999999999911
30
0
40
2.6000000000000001
210
0
220
0
230
1
0
LWPOLYLINE
5
116
100
AcDbEntity
8
0
100
AcDbPolyline
90
4
70
1
43
0.0
10
138.38970341178049
20
12.588064189998878
10
152.38970341178046
20
12.588064189998878
10
152.38970341178046
20
26.588064189998878
10
138.38970341178049
20
26.588064189998878
0
LWPOLYLINE
5
117
100
AcDbEntity
8
0
100
AcDbPolyline
90
4
70
1
43
0.0
10
75.010405598778263
20
124.4408470906416
10
75.010405598778263
20
110.44084709064164
10
89.010405598778263
20
110.44084709064164
10
89.010405598778263
20
124.4408470906416
0
LWPOLYLINE
5
118
100
AcDbEntity
8
0
100
AcDbPolyline
90
4
70
1
43
0.0
10
258.68044295177157
20
126.02671763768444
10
258.68044295177157
20
140.02671763768441
10
244.68044295177162
20
140.02671763768441
10
244.68044295177162
20
126.02671763768444
0
LINE
5
119
100
AcDbEntity
8
0
100
AcDbLine
10
189.34148895070717
20
162.09982721378142
30
0
11
189.34148895070717
21
163.09982721378145
31
0
0
LWPOLYLINE
5
120
100
AcDbEntity
8
0
100
AcDbPolyline
90
4
70
1
43
0.0
10
274.61283567986612
20
44.432263401723908
10
274.61283567986612
20
58.432263401723901
10
260.61283567986612
20
58.432263401723901
10
260.61283567986612
20
44.432263401723908
0
LWPOLYLINE
5
121
100
AcDbEntity
8
0
100
AcDbPolyline
90
4
70
1
43
0.0
10
214.23460803429322
20
12.595888657684826
10
228.2346080342933
20
12.595888657684826
10
228.2346080342933
20
26.595888657684831
10
214.23460803429322
20
26.595888657684831
0
CIRCLE
5
122
100
AcDbEntity
8
0
100
AcDbCircle
10
353.17999999999995
20
157.59999999999997
30
0
40
2.600000000000013
210
0
220
0
230
1
0
LWPOLYLINE
5
123
100
AcDbEntity
8
0
100
AcDbPolyline
90
4
70
1
43
0.0
10
271.66967321295084
20
124.44023851077463
10
271.66967321295084
20
110.44023851077466
10
285.66967321295084
20
110.44023851077466
10
285.66967321295084
20
124.44023851077463
0
LWPOLYLINE
5
124
100
AcDbEntity
8
0
100
AcDbPolyline
90
4
70
1
43
0.0
10
237.22013466890857
20
42.53559966116665
10
237.22013466890857
20
28.53559966116665
10
251.2201346689086
20
28.53559966116665
10
251.2201346689086
20
42.53559966116665
0
LWPOLYLINE
5
125
100
AcDbEntity
8
0
100
AcDbPolyline
90
4
70
1
43
0.0
10
301.18018583564566
20
135.4642206476851
10
315.18018583564572
20
135.4642206476851
10
315.18018583564572
20
149.4642206476851
10
301.18018583564566
20
149.4642206476851
0
LWPOLYLINE
5
126
100
AcDbEntity
8
0
100
AcDbPolyline
90
4
70
1
43
0.0
10
315.18018583564572
20
121.35130985670656
10
301.18018583564566
20
121.35130985670656
10
301.18018583564566
20
107.35130985670658
10
315.18018583564572
20
107.35130985670658
0
LWPOLYLINE
5
127
100
AcDbEntity
8
0
100
AcDbPolyline
90
4
70
1
43
0.0
10
214.07716427933411
20
44.42834605466993
10
228.07716427933414
20
44.42834605466993
10
228.07716427933414
20
58.428346054669937
10
214.07716427933411
20
58.428346054669937
0
LWPOLYLINE
5
128
100
AcDbEntity
8
0
100
AcDbPolyline
90
8
70
1
43
0.0
10
360.68000000000006
20
7.4999999999999991
10
360.68000000000006
20
157.59999999999997
42
0.41421356237308876
10
353.18000000000006
20
165.10000000000014
10
7.5
20
165.10000000000005
42
0.41421356237309759
10
-1.7763568394002498e-14
20
157.60000000000005
10
0
20
7.5000000000000355
42
0.41421356237309703
10
7.4999999999999964
20
2.2204460492503131e-15
10
353.18000000000006
20
1.1102230246251565e-15
42
0.41421356237308476
0
LWPOLYLINE
5
129
100
AcDbEntity
8
0
100
AcDbPolyline
90
4
70
1
43
0.0
10
285.67973539479402
20
138.44023851077469
10
285.67973539479402
20
152.44023851077466
10
271.67973539479408
20
152.44023851077466
10
271.67973539479408
20
138.44023851077469
0
LINE
5
130
100
AcDbEntity
8
0
100
AcDbLine
10
173.34147822469674
20
162.09971996626703
30
0
11
187.34148895070717
21
162.09982721378142
31
0
0
LWPOLYLINE
5
131
100
AcDbEntity
8
0
100
AcDbPolyline
90
4
70
1
43
0.0
10
45.499892976083601
20
121.35191843657353
10
45.499892976083601
20
107.35191843657354
10
59.499892976083615
20
107.35191843657354
10
59.499892976083615
20
121.35191843657353
0
LWPOLYLINE
5
132
100
AcDbEntity
8
0
100
AcDbPolyline
90
4
70
1
43
0.0
10
115.35549784081059
20
28.88558217679277
10
129.35549784081059
20
28.88558217679277
10
129.35549784081059
20
42.885582176792774
10
115.35549784081059
20
42.885582176792774
0
CIRCLE
5
133
100
AcDbEntity
8
0
100
AcDbCircle
10
122.72660000000002
20
157.60000000000005
30
0
40
2.600000000000013
210
0
220
0
230
1
0
LWPOLYLINE
5
134
100
AcDbEntity
8
0
100
AcDbPolyline
90
4
70
1
43
0.0
10
115.99991900622769
20
98.027326217551476
10
115.99991900622769
20
112.02732621755146
10
101.9999190062277
20
112.02732621755146
10
101.9999190062277
20
98.027326217551476
0
LWPOLYLINE
5
135
100
AcDbEntity
8
0
100
AcDbPolyline
90
4
70
1
43
0.0
10
244.68015980550132
20
98.026717637684413
10
258.68015980550126
20
98.026717637684413
10
258.68015980550126
20
112.02671763768438
10
244.68015980550132
20
112.02671763768438
0
LINE
5
136
100
AcDbEntity
8
0
100
AcDbLine
10
173.34146025183429
20
163.10002285769912
30
0
11
173.34146025183429
21
165.09999630972743
31
0
0
CIRCLE
5
137
100
AcDbEntity
8
0
100
AcDbCircle
10
353.17999999999995
20
7.5000000000000462
30
0
40
2.6000000000000063
210
0
220
0
230
1
0
LINE
5
138
100
AcDbEntity
8
0
100
AcDbLine
10
187.34148895070717
20
163.09982721378145
30
0
11
187.34148895070717
21
165.09999630972743
31
0
0
LINE
5
139
100
AcDbEntity
8
0
100
AcDbLine
10
187.34148895070717
20
162.09982721378142
30
0
11
189.34148895070717
21
162.09982721378142
31
0
0
CIRCLE
5
140
100
AcDbEntity
8
0
100
AcDbCircle
10
237.95339999999999
20
157.59999999999997
30
0
40
2.600000000000013
210
0
220
0
230
1
0
CIRCLE
5
141
100
AcDbEntity
8
0
100
AcDbCircle
10
237.95339999999999
20
7.5000000000000462
30
0
40
2.600000000000013
210
0
220
0
230
1
0
LINE
5
142
100
AcDbEntity
8
0
100
AcDbLine
10
189.34148895070717
20
163.09982721378145
30
0
11
187.34148895070717
21
163.09982721378145
31
0
0
LWPOLYLINE
5
143
100
AcDbEntity
8
0
100
AcDbPolyline
90
4
70
1
43
0.0
10
327.67957820033809
20
132.89067165182314
10
327.67957820033809
20
118.89067165182314
10
341.67957820033797
20
118.89067165182314
10
341.67957820033797
20
132.89067165182314
0
CIRCLE
5
144
100
AcDbEntity
8
0
100
AcDbCircle
10
353.17999999999995
20
82.549999999999983
30
0
40
2.600000000000013
210
0
220
0
230
1
0
LWPOLYLINE
5
145
100
AcDbEntity
8
0
100
AcDbPolyline
90
4
70
1
43
0.0
10
19.000283579397962
20
90.891280231690118
10
33.000283579397959
20
90.891280231690118
10
33.000283579397959
20
104.89128023169013
10
19.000283579397962
20
104.89128023169013
0
LWPOLYLINE
5
146
100
AcDbEntity
8
0
100
AcDbPolyline
90
4
70
1
43
0.0
10
237.39792552917689
20
74.753907708520188
10
237.39792552917689
20
60.753907708520181
10
251.39792552917686
20
60.753907708520181
10
251.39792552917686
20
74.753907708520188
0
CIRCLE
5
147
100
AcDbEntity
8
0
100
AcDbCircle
10
7.4999999999999822
20
157.60000000000005
30
0
40
2.6000000000000001
210
0
220
0
230
1
0
LWPOLYLINE
5
148
100
AcDbEntity
8
0
100
AcDbPolyline
90
4
70
1
43
0.0
10
173.34000000000003
20
111.55800000000002
10
173.34000000000003
20
97.558000000000007
10
187.34000000000009
20
97.558000000000007
10
187.34000000000009
20
111.55800000000002
0
CIRCLE
5
149
100
AcDbEntity
8
0
100
AcDbCircle
10
7.4999999999999867
20
82.549999999999983
30
0
40
2.600000000000013
210
0
220
0
230
1
0
LINE
5
150
100
AcDbEntity
8
0
100
AcDbLine
10
171.34146025183429
20
163.10002285769912
30
0
11
173.34146025183429
21
163.10002285769912
31
0
0
LINE
5
151
100
AcDbEntity
8
0
100
AcDbLine
10
171.34146025183429
20
162.09971996626703
30
0
11
171.34146025183429
21
163.10002285769912
31
0
0
LINE
5
152
100
AcDbEntity
8
0
100
AcDbLine
10
173.34147822469674
20
162.09971996626703
30
0
11
171.34146025183429
21
162.09971996626703
31
0
0
LWPOLYLINE
5
153
100
AcDbEntity
8
0
100
AcDbPolyline
90
4
70
1
43
0.0
10
192.8919780597175
20
31.347773669060199
10
167.79197805971751
20
31.347773669060199
10
167.79197805971751
20
86.447773669060197
10
192.8919780597175
20
86.447773669060197
0
LWPOLYLINE
5
154
100
AcDbEntity
8
0
100
AcDbPolyline
90
4
70
1
43
0.0
10
198.10476317970421
20
97.012773669060152
10
205.60476317970421
20
97.012773669060152
10
205.60476317970421
20
77.012773669060167
10
198.10476317970421
20
77.012773669060167
0
ENDSEC
0
SECTION
2
OBJECTS
0
DICTIONARY
5
C
100
AcDbDictionary
3
ACAD_GROUP
350
D
3
ACAD_MLINESTYLE
350
17
0
DICTIONARY
5
D
100
AcDbDictionary
0
DICTIONARY
5
1A
330
C
100
AcDbDictionary
0
DICTIONARY
5
17
100
AcDbDictionary
0
ENDSEC
0
EOF
